823  2  0  1
   1    0  0    2
   2    1  0    2
   3    1  1    2
   4    0  1    2
   5    0.5  0.5    0
   6    0  0.5    2
   7    0.375  0.061467599502965001    0
   8    0.25  0.5    0
   9    0  0.25    2
  10    0.64819913134818585  0.38673713354546041    0
  11    0.48649395924182642  0.23237893993402708    0
  12    0.3384510914217444  0.47224653207979528    0
  13    0.59198884164924315  0.29312524225141345    0
  14    0.125  0.5    0
  15    0.2678371341450273  0.7354236658683706    0
  16    0.24546777842526257  0.86680501138400812    0
  17    0.13649646549997604  0.79008018499674293    0
  18    0.5  1    2
  19    0.36159784617125879  0.92952806050697778    0
  20    0.375  0.6419627238052783    0
  21    0  0.75    2
  22    0.28592015130903858  0.59438525975210155    0
  23    0.40200931904868042  0.53973136190263915    0
  24    0.43695746503733529  0.8211707747790129    0
  25    0.14624207826830687  0.64815510139581978    0
  26    0.25  1    2
  27    0.36973779209876789  0.74409630243881297    0
  28    0.037428295438812438  0.875    0
  29    0.14404898258184332  0.93693058866036183    0
  30    0.3373425079777112  0.83556877795020668    0
  31    0.45617767293919287  0.91492187085667209    0
  32    0.75  1    2
  33    0.75  0    2
  34    1  0.5    2
  35    0.47918032206119782  0.71649686974973181    0
  36    0.48672881702958209  0.607973270339498    0
  37    0.55834884338265722  0.79270708992346317    0
  38    1  0.75    2
  39    0.625  1    2
  40    0.77617281104933133  0.86347996912049041    0
  41    0.59245075692598148  0.67805548200111176    0
  42    0.68935620341979276  0.75491841280673366    0
  43    0.77683852218196325  0.77395322920447618    0
  44    0.85383357583210773  0.91129178791605381    0
  45    0.65010642983883549  0.57325207037981496    0
  46    0.63832069078725673  0.88135530992330458    0
  47    0.875  1    2
  48    0.69441775355378654  0.65875163357947331    0
  49    0.81225437514712862  0.47549149361822041    0
  50    0.9375  0.875    0
  51    0.40591957765124226  0.4086709556278616    0
  52    0.52542799003792628  0.37968410021790799    0
  53    0.375  0.28125    0
  54    0.75520358484213101  0.56421718580816582    0
  55    0.5  0    2
  56    0.15625  0.40625    0
  57    0.015625  0.375    0
  58    0.50285673056805047  0.11674799600213867    0
  59    0.60245637583528344  0.4804721185831603    0
  60    0.25  0    2
  61    0.3932892624451968  0.17135879975148249    0
  62    0.19342189225324963  0.19456229296100458    0
  63    0.29669794194157856  0.21175059168539229    0
  64    0.25932209140805473  0.33271990996409573    0
  65    0.26078950507010301  0.10864506949376047    0
  66    0.12365889952853532  0.070491144882429996    0
  67    0  0.125    2
  68    0.11941689474904282  0.29067468386796003    0
  69    0.086742131394206237  0.1875    0
  70    0.021532462651856179  0.625    0
  71    0.91054777715150115  0.78339888857575057    0
  72    0.84408256579098362  0.71484553993810473    0
  73    0.94626172684887777  0.625    0
  74    0.8590972362477638  0.56831627308358312    0
  75    0.93716276114540253  0.24999999999999997    0
  76    0.76243886873156597  0.25445863781035549    0
  77    0.85230429868478785  0.35033516274228194    0
  78    0.97986167583340267  0.37216470956941161    0
  79    0.75368059143622879  0.38776179389838222    0
  80    0.91125341250121694  0.4484766747903432    0
  81    0.60824036767325351  0.17420249921629294    0
  82    0.7040059598350813  0.47642480605412807    0
  83    0.625  0.055350298423128615    0
  84    0.97078585857757538  0.12555409324376793    0
  85    0.84742147381284838  0.15898834250519855    0
  86    0.72551146895764385  0.1301314186681958    0
  87    0.875  0.032747269375631279    0
  88    0.78509854209989272  0.93596002089970343    0
  89    0.80960611216392198  0.89615236074190574    0
  90    0.77245400224694127  0.90072754705785929    0
  91    0.71726378526792722  0.94041992588190437    0
  92    0.7505425393430345  0.92847655414910524    0
  93    0.76086886554372268  0.96431866487793438    0
  94    0.81635882076685862  0.98719912102811891    0
  95    0.79235365272655134  0.96668906216424511    0
  96    0.82622903571718176  0.94247011734484731    0
  97    0.8708000013637518  0.95412281283380906    0
  98    0.84511149831548105  0.82637792574946833    0
  99    0.84880809056456141  0.97926699040946241    0
 100    0.90542084557642111  0.91563272010883667    0
 101    0.81644532020106952  0.85571171238525956    0
 102    0.78844089388628846  0.81880534821859785    0
 103    0.85828896554937739  0.86792926179065866    0
 104    0.89629974102886667  0.83300943799168936    0
 105    0.88141506352424559  0.89221556284301384    0
 106    0.86916105001647437  0.84161612181124512    0
 107    0.87854885179823294  0.92627737972648294    0
 108    0.97266250104695473  0.76703815960899302    0
 109    0.71569431594452126  0.82285021209585829    0
 110    0.71835439548918145  0.88053432990322744    0
 111    0.74951133726357511  0.87962751240952597    0
 112    0.74578363225487276  0.84338826732771754    0
 113    0.75067404589413811  0.80391332541655203    0
 114    0.71690401591509234  0.78330946674440005    0
 115    0.82162642288952692  0.78629418309722965    0
 116    0.87456342174585988  0.79991554052435909    0
 117    0.87435122888537664  0.75199587505315346    0
 118    0.95994150513937504  0.79663231435260096    0
 119    0.99742928470327274  0.71875    0
 120    1  0.875    1
 121    1  0.9375    1
 122    0.95399661721044071  0.92100338278955929    0
 123    0.81772344224899463  0.81550276776641539    0
 124    0.80940645512685383  0.74320019715381913    0
 125    0.85248257779236725  0.77605301407187621    0
 126    0.91269383195653464  0.68984975955475392    0
 127    0.92007964400075759  0.81298769526742443    0
 128    0.93392287274357821  0.70926194268923759    0
 129    0.74614574960466118  0.70882762551775369    0
 130    0.7282186801947339  0.74477052377634634    0
 131    0.69763569230495903  0.70713759548917554    0
 132    0.76403469105096544  0.74019215720619269    0
 133    0.74565171806354225  0.77081910658568664    0
 134    0.84099427639222701  0.74644951054985453    0
 135    0.88272933035563417  0.71426368209247171    0
 136    0.9261474506660814  0.73695757119449934    0
 137    0.79634268954727461  0.69184319473424793    0
 138    0.63711850011726345  0.72125888594979914    0
 139    0.72282510471106942  0.68116237134228108    0
 140    0.74467452263159384  0.62425690556193236    0
 141    0.72490665108042018  0.64931421847727022    0
 142    0.76605788136223607  0.66145252705452784    0
 143    0.80945154600737346  0.61176163957939911    0
 144    0.76776086511547526  0.69004046784144757    0
 145    0.77921134821319638  0.62914640078434869    0
 146    0.76613690781843047  0.59707763544798409    0
 147    0.81333562401275794  0.65351113621995305    0
 148    0.86702277643717651  0.62746104121850232    0
 149    0.82968243089420401  0.68369040466364195    0
 150    0.84709613631660119  0.65474133816230395    0
 151    0.88547985164407716  0.66186060406702851    0
 152    0.90670714018305365  0.62831975819161801    0
 153    0.88758527049546365  0.59460221317924278    0
 154    0.92904781554611038  0.65720231948347907    0
 155    1  0.625    1
 156    0.97529238661406747  0.65625    0
 157    0.95641845142762361  0.69133280532977126    0
 158    0.96763516288500828  0.72852145752767961    0
 159    0.92483144985462928  0.52565547596574291    0
 160    0.89740896763056932  0.55537526570554208    0
 161    0.86052562326754833  0.50936373448637606    0
 162    1  0.5625    1
 163    0.87057022477685586  0.53910068336756634    0
 164    0.92416068261710749  0.59897261965903736    0
 165    0.90334492851226311  0.75513881655180981    0
 166    1  0.8125    1
 167    0.8148492678944923  0.71447567284535174    0
 168    0.66063352201442493  0.68529846156468399    0
 169    0.62584710707455005  0.68821975298857951    0
 170    0.62587474477708815  0.62818226450367931    0
 171    0.61673973536679982  0.65819680989041729    0
 172    0.65831384556766503  0.64757558653334635    0
 173    0.65881818443006801  0.60990496992643872    0
 174    0.7026862540911889  0.61145825224479333    0
 175    0.73127482690334078  0.59042784936647497    0
 176    0.69342437303725435  0.56892097246019047    0
 177    0.66655698521165829  0.51899398450781509    0
 178    0.66961138798033881  0.54954292338986777    0
 179    0.67036910288564944  0.72702057048140223    0
 180    0.86313109108411823  0.68696129060724109    0
 181    0.93542429689848505  0.56241402850889988    0
 182    0.96496038075113344  0.58672491792520642    0
 183    0.93123026035038114  0.76450552053544796    0
 184    1  0.6875    1
 185    0.99571108074650594  0.59375    0
 186    0.97313086342443889  0.61442147017414095    0
 187    0.96775110883754567  0.53319272634238679    0
 188    0.99895806236390128  0.53125    0
 189    0.90419664881108353  0.86646885376599014    0
 190    0.67863316487365166  0.90976367311125328    0
 191    0.70966401174275429  0.91032879329109873    0
 192    0.66217388641224351  0.96996554212597141    0
 193    0.67820035796514211  0.86757124520618123    0
 194    0.63473079493059481  0.80638772812897153    0
 195    0.70532189084952102  0.85223192538967574    0
 196    0.67239570145214256  0.82566147805836798    0
 197    0.63938355283302739  0.84373467000500646    0
 198    0.6682776864929052  0.78726953751615292    0
 199    0.64815196638701256  0.75641013231649168    0
 200    0.5948710261306096  0.75382700079842124    0
 201    0.57214208834130842  0.8606602914901238    0
 202    0.60009144717057517  0.82966646440961755    0
 203    0.60733097195601038  0.8642937487790342    0
 204    0.58815793088862867  0.93579347336241192    0
 205    0.58617782457975731  0.89694195700484036    0
 206    0.56555455202169846  0.82662095192457286    0
 207    0.49985329061411365  0.85699303303343999    0
 208    0.52178972634335441  0.8181972709552805    0
 209    0.59964957996572321  0.79159747436134231    0
 210    0.61988716497372975  0.9147001440523348    0
 211    0.53410005323798937  0.89623276382602124    0
 212    0.62080293362310535  0.76973372772786397    0
 213    0.6251030054765605  0.95695668068850703    0
 214    0.55985061113026036  0.91775996694146589    0
 215    0.55339279309794487  0.95913069958966368    0
 216    0.6875  1    1
 217    0.53634270676086504  0.85202570048368476    0
 218    0.47937822364178651  0.81981605551592773    0
 219    0.45649784208237992  0.76820009906999143    0
 220    0.49910253152789741  0.78019344186470174    0
 221    0.45747021310627167  0.79864826468072847    0
 222    0.49317436481385557  0.8973865364009187    0
 223    0.51478436045291243  0.93750047852951346    0
 224    0.48468513714498834  0.74973893780984269    0
 225    0.54083245962635096  0.72336423497443736    0
 226    0.51988226512648605  0.75171625333750425    0
 227    0.5625  1    1
 228    0.49783957244371962  0.96649055481594115    0
 229    0.375  1    1
 230    0.48119954251398167  0.93732448261369206    0
 231    0.42909406804221334  0.97034701182198857    0
 232    0.96566968162900613  0.84066968162900613    0
 233    0.931385515029163  0.9031521280220306    0
 234    0.96875  0.88975338278955929    0
 235    0.84344403059558537  0.60051724475124824    0
 236    0.99619314292116279  0.96875    0
 237    0.9375  1    1
 238    0.99691968162900613  0.84375    0
 239    0.93320522759878521  0.84275348190731336    0
 240    0.89925158769625546  0.94646801875399278    0
 241    0.80828178279429208  0.53759146927555923    0
 242    0.8229808494505445  0.57066481966148108    0
 243    0.83929847272874292  0.54360955144843071    0
 244    0.78872383453636086  0.57131342573550314    0
 245    0.86063349864154182  0.45787826194268072    0
 246    0.89160977804957531  0.48368601454066551    0
 247    0.842596097676648  0.48358331821022904    0
 248    0.81571929877363603  0.40975950227365238    0
 249    0.87654086300065848  0.40255214114512083    0
 250    0.82795273572908168  0.44336168091589101    0
 251    0.84744329999625112  0.41723783063944098    0
 252    0.83877546559942551  0.38298011650519637    0
 253    0.79530049816263915  0.36886459720914283    0
 254    0.88241723201620181  0.43419161739041756    0
 255    0.78429416116777506  0.39990505415277944    0
 256    0.78538821546705218  0.44246495945927311    0
 257    0.75826819531341405  0.49196703652736784    0
 258    0.78190685560121087  0.47273764906398547    0
 259    0.79024793043789832  0.50713550167205668    0
 260    0.77471711780994978  0.53689890602181356    0
 261    0.82240644687568476  0.50866068582985235    0
 262    0.74822457738775383  0.32046402714374356    0
 263    0.76305702278252929  0.35313157058983846    0
 264    0.55635276494840913  0.61772672460399403    0
 265    0.58952529781317631  0.63351661568948603    0
 266    0.59526924046404672  0.57870876931159876    0
 267    0.71589176875352956  0.52463789727181587    0
 268    0.69318659851600617  0.50466369586761028    0
 269    0.72771247777315862  0.49615214862540852    0
 270    0.74724021949407882  0.52148101643179434    0
 271    0.72353648755298461  0.55635756049839391    0
 272    0.65286214505256523  0.46918945160661935    0
 273    0.63357887887490894  0.50127691889525605    0
 274    0.59245038174503928  0.52912130156226767    0
 275    0.61758563694068391  0.42982646629846677    0
 276    0.68505435967509787  0.42601083580892513    0
 277    0.62982186534570828  0.5400248112038889    0
 278    0.5347610651960798  0.55727457410159353    0
 279    0.55223061205982782  0.4954954493127432    0
 280    0.62420205128096773  0.45938556389265156    0
 281    0.68075576337560406  0.45639588668114828    0
 282    0.56951130349862078  0.55529915537842178    0
 283    0.5537443337662119  0.58457634831937177    0
 284    0.55054976723070403  0.52837968121277323    0
 285    0.52282440137880071  0.6036870875421656    0
 286    0.51650585193692422  0.66583128011063142    0
 287    0.52911463569335693  0.63571996853651358    0
 288    0.55567067603918141  0.66453557240939354    0
 289    0.56424994142466611  0.69798513616634839    0
 290    0.59798460781772855  0.71580313466057266    0
 291    0.57114976939276219  0.73274517652616011    0
 292    0.52127740341133244  0.44165187128542555    0
 293    0.58138389670518309  0.50149159510614549    0
 294    0.52422062573468131  0.47577876074668635    0
 295    0.56643402683210886  0.4515114245145293    0
 296    0.55128860161479132  0.41253912604348991    0
 297    0.58678481595624654  0.35799447897452508    0
 298    0.58417504673296816  0.4221878456755444    0
 299    0.57584827405690264  0.38969958911349578    0
 300    0.61186675114513378  0.38438519675669147    0
 301    0.69608601986130969  0.96706480060181121    0
 302    0.65094788044788954  0.93231640562412021    0
 303    0.71875  0.99055993486470895    0
 304    0.7321042883784572  0.96507206532572531    0
 305    0.4644233153905466  0.98546934067637248    0
 306    0.59076805553936407  0.97406643822693928    0
 307    0.53125  0.98551430425379571    0
 308    0.40653093602374296  0.77985725121391158    0
 309    0.38683936364948368  0.8262206809450966    0
 310    0.42084994780518942  0.72831689859297732    0
 311    0.41040414137126385  0.80886572471821439    0
 312    0.41697841349432224  0.87411248891112059    0
 313    0.4595574428061438  0.87107917454306971    0
 314    0.43675327183639345  0.85133440354688572    0
 315    0.35439286545204773  0.7901345322194363    0
 316    0.42777495225328521  0.75800005297250672    0
 317    0.36957381893226227  0.87051554056362845    0
 318    0.35966087502368793  0.8180279001746954    0
 319    0.29219602791422428  0.79270999863002911    0
 320    0.37798317413072935  0.77242096818360273    0
 321    0.39460798561578314  0.85476115522002427    0
 322    0.39091396453769334  0.90344508242532973    0
 323    0.42400037605760305  0.90659859878018689    0
 324    0.43305514784933508  0.93795280224690591    0
 325    0.39543404880807864  0.94979187203477733    0
 326    0.39962828116665683  0.98076112828819106    0
 327    0.3125  1    1
 328    0.36286245927111238  0.96579792154200317    0
 329    0.34375  0.99183520716551199    0
 330    0.310581154065384  0.89258751679761072    0
 331    0.32173126074357367  0.75367173545296329    0
 332    0.32383949399667644  0.8045850149256657    0
 333    0.45736717419387674  0.95601531252926419    0
 334    0.33558006395910472  0.86953108529857803    0
 335    0.35176229592451386  0.89815344867191049    0
 336    0.34846693110327775  0.76258295776701546    0
 337    0.28954737386176738  0.76001421517733614    0
 338    0.33420148972251112  0.69106302149578569    0
 339    0.34096177189792776  0.72495576532726658    0
 340    0.30223360428144808  0.7150599477976437    0
 341    0.24704969453301939  0.66107999118559158    0
 342    0.29292976321068093  0.66937396295623819    0
 343    0.2643697660217591  0.69631513225859298    0
 344    0.18562619121283003  0.72300452422158867    0
 345    0.22824045667028134  0.7192263374166834    0
 346    0.2134781962714622  0.79493521296692726    0
 347    0.24963121156785603  0.77337604113361236    0
 348    0.20320033428480408  0.67901094514992599    0
 349    0.20993312882332235  0.75495030668768592    0
 350    0.25313216028947055  0.82033930405912447    0
 351    0.17589486574395941  0.77811775013873086    0
 352    0.14404424930595408  0.74407815497966034    0
 353    0.27578765681929512  0.63315436580904061    0
 354    0.32644790481212155  0.62568602670269535    0
 355    0.23269234847504125  0.68855105120836657    0
 356    0.16155736942632268  0.6878827700388378    0
 357    0.20193791103177527  0.61334242542284878    0
 358    0.24399031452537959  0.60413533430367894    0
 359    0.22839150214699666  0.63352790005254622    0
 360    0.21009002454260206  0.54993785942106421    0
 361    0.25562924958153999  0.55915424891070264    0
 362    0.2173501417718938  0.58309766800614227    0
 363    0.21401258814734891  0.83775160789779091    0
 364    0.1901256351785906  0.89516771325562161    0
 365    0.16855603716718359  0.82480797631745606    0
 366    0.21259638860572588  0.87083934755919179    0
 367    0.17716487639634443  0.86065491063572275    0
 368    0.1455028000630243  0.89223513181772118    0
 369    0.29372710917352363  0.83630472796104105    0
 370    0.26632737677232754  0.84638077853246307    0
 371    0.17274340022099216  0.74914555529214333    0
 372    0.072388110178272722  0.75594138919623077    0
 373    0.093585485467294782  0.69127049195800239    0
 374    0.12701357287766341  0.67838373295520915    0
 375    0.13663808848477188  0.71094339990054123    0
 376    0.10577057608129792  0.73523787152765963    0
 377    0.10520149927593722  0.771585083716675    0
 378    0.088932163314940069  0.83483805772496333    0
 379    0.072945752372579956  0.79700737332313965    0
 380    0.1062302613812538  0.80556850215303455    0
 381    0.12994141764445769  0.83932792989437255    0
 382    0  0.8125    1
 383    0.043246500639145244  0.8305660313477734    0
 384    0.10524904542993953  0.87533270233875449    0
 385    0.071386371271413646  0.86544262468398436    0
 386    0.34222715514251417  0.56336755448175813    0
 387    0.34299757509601464  0.65687154534326087    0
 388    0.23762030596522513  0.531023049548908    0
 389    0.14775469921604259  0.86283068542100028    0
 390    0  0.875    1
 391    0.032782121325870342  0.93590315355571063    0
 392    0.073224342589064573  0.92206589543044915    0
 393    0.034222097999805842  0.77699643038728772    0
 394    0.018714147719406219  0.90625    0
 395    0.0031073832171205746  0.78125    0
 396    0.36158524392691027  0.60142600496669429    0
 397    0.37888824874150195  0.56867260289950972    0
 398    0.43288753015876674  0.58810616903277591    0
 399    0.40920108535251237  0.5691831395831497    0
 400    0.40028879774749243  0.61110591752318755    0
 401    0.43508143648738712  0.66541150189240872    0
 402    0.40885395384706025  0.6439166816620322    0
 403    0.38922468026424306  0.68975925212585731    0
 404    0.32080779398028281  0.59110101515850844    0
 405    0.29936981420478226  0.55218426103758966    0
 406    0.2733914037622322  0.52731587151478043    0
 407    0.29414600400765717  0.48586976437001117    0
 408    0.012342204931931607  0.84375    0
 409    0.028305029934638813  0.80553815876087675    0
 410    0.42162789291333325  0.6954303595424558    0
 411    0.45532871550292386  0.6925098840037831    0
 412    0.47584289180365735  0.65606883163505547    0
 413    0.49026148094631322  0.68557867732120092    0
 414    0.44758505419887362  0.62637285460702263    0
 415    0.3905697748863558  0.72090445824708083    0
 416    0.33112845306470085  0.51818873431908152    0
 417    0.24743401932815393  0.41595721129348429    0
 418    0.4986835548349155  0.63595883777580731    0
 419    0.30107543508862394  0.515259356549574    0
 420    0.37488196479713393  0.50160784987830276    0
 421    0.36492276867315077  0.5358548271425484    0
 422    0.30136325456755442  0.43048601392204972    0
 423    0.26076645609472099  0.45761071392011882    0
 424    0.19323075229622333  0.46301924770377667    0
 425    0.20861478001234623  0.50146687232580334    0
 426    0.27231560244044822  0.43095359581612974    0
 427    0.28981410822182718  0.45714313202603885    0
 428    0.22583858337273771  0.4458299418313279    0
 429    0.1928749402107226  0.42282136493574468    0
 430    0.16689289604101104  0.49585941395460509    0
 431    0.22847075638651118  0.47712929162372775    0
 432    0.1999292890194968  0.35847160870757228    0
 433    0.14154849124084284  0.45343283041361426    0
 434    0.18401610238530108  0.52647349186183978    0
 435    0.18589268399244468  0.38949438938198805    0
 436    0.22314122367094552  0.38766100887285482    0
 437    0.17019110957868261  0.4431226672811916    0
 438    0.23384441159137712  0.35532566832584711    0
 439    0.38400676352708718  0.45300403189644456    0
 440    0.0625  0.45156549892545306    0
 441    0.36639517014287232  0.47485610723319238    0
 442    0.34649806730848126  0.42775069556979123    0
 443    0.44956934463963272  0.4578280624912428    0
 444    0.4881217480397021  0.46170169260842203    0
 445    0.47425751081306378  0.40590216189200518    0
 446    0.49223130331126347  0.43105845639743595    0
 447    0.10171708465628496  0.46550200371391803    0
 448    0.0625  0.51707575294427421    0
 449    0.099728643200021255  0.40895109067175273    0
 450    0.072944707109290199  0.48432062593486364    0
 451    0.036143076915438083  0.49062842860105943    0
 452    0.11474427247300022  0.43673352685901695    0
 453    0.32001713548701183  0.36454223758494592    0
 454    0.28165228245966373  0.38732282985614158    0
 455    0.37749000528120102  0.42220091232497947    0
 456    0.35518638513359424  0.38695948993611023    0
 457    0.32173767841601952  0.40063918851210756    0
 458    0.36424837088518347  0.33394639616284949    0
 459    0.34856766820209889  0.35854702690279799    0
 460    0.4177671746681656  0.44210898549537475    0
 461    0.44041191016203424  0.41526770918542621    0
 462    0.4158812832954657  0.48595438026070026    0
 463    0.43641713439279473  0.34268201359287331    0
 464    0.44843515978476745  0.37842337256507885    0
 465    0.45667226103234115  0.50057347649150818    0
 466    0.44779567141111737  0.54515928134459557    0
 467    0.48748260133423893  0.34540246861170659    0
 468    0.42754075241396644  0.5176396340628634    0
 469    0.28730333158647653  0.35314430685951909    0
 470    0.31049212440604423  0.29199664688411042    0
 471    0.31426740737363762  0.32839906149677861    0
 472    0.28541345697334047  0.31299452160480601    0
 473    0.22727429345256284  0.2632107100163783    0
 474    0.25089960144259166  0.29446061679299218    0
 475    0.21315872332035712  0.31670719547570075    0
 476    0.27340747055095754  0.25288893228345666    0
 477    0.16089007767214231  0.32312791201192659    0
 478    0.15211060318485584  0.3643283745544465    0
 479    0.18849282538041198  0.33187145008828833    0
 480    0.12705110292738353  0.38796796028179931    0
 481    0.075156401632759384  0.34867512896416797    0
 482    0.095712621341193183  0.37544170166770535    0
 483    0.055547310594681758  0.39725077008533366    0
 484    0.11790470645986642  0.33550373601109446    0
 485    0.46787095971650006  0.57618898394527263    0
 486    0.48926201809192738  0.54034070333574291    0
 487    0.51836977462771605  0.52648919130770944    0
 488    0.49234565560914723  0.37816085429417051    0
 489    0.46487770013990232  0.28908411046428423    0
 490    0.54054297268863749  0.32481257869093783    0
 491    0.24049028116030943  0.21402256878090026    0
 492    0.31586538953299564  0.24976436252311421    0
 493    0.35179129919617197  0.2078104372551528    0
 494    0.34070688393694115  0.27438294192391438    0
 495    0.36459476267579338  0.24415126952153177    0
 496    0.32506741409736895  0.22128525587435863    0
 497    0.42320273175810164  0.24772181100216928    0
 498    0.39327866629335972  0.25611473978571486    0
 499    0.39411679715181902  0.21373687388900151    0
 500    0.41915612085069182  0.29414700290840462    0
 501    0.44667115951699604  0.19151350558695668    0
 502    0.41594893017764428  0.19211343164684841    0
 503    0.047041873178606891  0.36557154687944743    0
 504    0.01376805349436344  0.31175555581320458    0
 505    0.023183351001563872  0.34312859271973306    0
 506    0.072450459833415137  0.42268940362633411    0
 507    0  0.375    1
 508    0.011183679088229748  0.46875    0
 509    0.50335378362605765  0.57393828081838927    0
 510    0.46309781322491733  0.32249424067685994    0
 511    0.51918954796396022  0.34844809320321185    0
 512    0.5523015647675108  0.35807594825983141    0
 513    0.24676751809336822  0.24207867409672512    0
 514    0.2058759594373811  0.23109183208614853    0
 515    0.17659063716807535  0.27378985596173466    0
 516    0.23589178176547276  0.15849284059295393    0
 517    0.34178650225250701  0.30839016245369583    0
 518    0.43990758589325368  0.27256683046838825    0
 519    0.40161484816287013  0.32772225194513249    0
 520    0.40485825891282834  0.3681385836119847    0
 521    0.38434440166889461  0.3889558091646515    0
 522    0  0.4375    1
 523    0.20560688315257278  0.28610406045127401    0
 524    0.15114200424358884  0.2928586635242062    0
 525    0.22392401058787487  0.18743917790858289    0
 526    0.90625  0.98189784642950584    0
 527    0.93758595305938497  0.9573019844522398    0
 528    0.96946240834624353  0.94985444168610877    0
 529    0.89368612346377641  0.51617577906734613    0
 530    0.91771604414283703  0.35170743605384291    0
 531    0.74086015574415831  0.45024995979324423    0
 532    0.75811948567291776  0.42123174380447309    0
 533    0.72128227524547361  0.4189636890051191    0
 534    0.70114979802564381  0.36563798772629025    0
 535    0.6982486941656294  0.39719650256921002    0
 536    0.72990136811393624  0.34848458884031375    0
 537    0.8076130184926068  0.30979500407296562    0
 538    0.79083227130271994  0.33711522279237971    0
 539    0.62455975850039147  0.59479234560242478    0
 540    0.65170561974783126  0.43473728458833644    0
 541    0.55210096919206331  0.76002591204408443    0
 542    0.4527112382927696  0.73571181938619679    0
 543    0.24471253015313707  0.93350531337911569    0
 544    0.22444830436777818  0.90432797377500795    0
 545    0.11184861639624914  0.91419449720489798    0
 546    0.13296059125479187  0.96799294642150058    0
 547    0.0625  1    1
 548    0.125  1    1
 549    0.19462554780399349  0.97249530662568107    0
 550    0.19828223126466307  0.93348778577012526    0
 551    0.16218597065663487  0.99225517798652474    0
 552    0.1721498240468706  0.95071320929399916    0
 553    0.09375  0.97523421764769613    0
 554    0  0.9375    1
 555    0.097642572775847328  0.94318535671024351    0
 556    0.05573431655110532  0.95936406000736807    0
 557    0.50291638569053854  0.30651197617389347    0
 558    0.49713358026719651  0.2689075015567976    0
 559    0.46768507384485936  0.25767115091595227    0
 560    0.55717652855844491  0.23160510503671669    0
 561    0.52194336003633279  0.24186741879737117    0
 562    0.52000418552838423  0.17814771637933813    0
 563    0.55092422150207554  0.27575275500263308    0
 564    0.51139849708657503  0.21029897087228755    0
 565    0.48347758334732938  0.18559824871730363    0
 566    0.53075182921631769  0.29711246670490127    0
 567    0.45745084681893483  0.14112012175239855    0
 568    0.42625410191241725  0.1581152661085887    0
 569    0.38996832504457823  0.11544395855542011    0
 570    0.49561966989846346  0.15186342642493056    0
 571    0.45131327478724015  0.22645520115884918    0
 572    0.56319104654542562  0.30397673080308107    0
 573    0.44778339665156797  0.06862720370058141    0
 574    0.46626235742218625  0.10305397275441398    0
 575    0.42896371939019318  0.11447303867677082    0
 576    0.40862565196048911  0.081206414345662864    0
 577    0.3196789858602298  0.14594135573910355    0
 578    0.3228154763611672  0.18358167518310936    0
 579    0.2797088630584364  0.1698065011866573    0
 580    0.35535524762775805  0.16191936450724123    0
 581    0.3514287009099839  0.12286808412188639    0
 582    0.37993181326350633  0.14409609524535105    0
 583    0.30893135866805188  0.097771150244079008    0
 584    0.36568210897453424  0.093115200363536238    0
 585    0.26803075089617595  0.19894929862792116    0
 586    0.26371372839518609  0.14124742907871929    0
 587    0.27341432366891544  0.052533017238024733    0
 588    0.29312319563222189  0.12658232766147834    0
 589    0.28042866950961315  0.083587469896218    0
 590    0.13250948421623596  0.22976705805580988    0
 591    0.16932388061597733  0.2231658228718571    0
 592    0.17122818273746571  0.12539260276999398    0
 593    0.92647168092571863  0.40089259142087424    0
 594    0.90078737254480024  0.38009286314636981    0
 595    0.94542784777019151  0.37214624217969616    0
 596    0.9936033194955266  0.21875    0
 597    1  0.4375    1
 598    0.96858138057270127  0.25527964512883256    0
 599    0.65247890072286174  0.32048530997362579    0
 600    0.63217713359219352  0.35243799113619051    0
 601    0.7003492236645904  0.30915860825827435    0
 602    0.61630005900628437  0.31992427321918709    0
 603    0.66787739675721136  0.3526949535546427    0
 604    0.65843871278623645  0.23885229003208136    0
 605    0.73193519619888725  0.28242287951751027    0
 606    0.691562334731746  0.26675172757786858    0
 607    0.6712674484711969  0.29307069673213632    0
 608    0.63162023392385647  0.2815996122006395    0
 609    0.71699884720306573  0.20293947713838895    0
 610    0.60030224536578314  0.24781128243163808    0
 611    0.65709687901552261  0.26779670519431487    0
 612    0.69368298998124334  0.23062124092605146    0
 613    0.66392622554792657  0.1827778825826212    0
 614    0.72983810591547116  0.23741390414690161    0
 615    0.58539459422974915  0.32644020240587618    0
 616    0.57871940114851905  0.26727122202043263    0
 617    0.59009935649395395  0.20947855863690612    0
 618    0.5553004271016585  0.19325682973218686    0
 619    0.63110422170340208  0.20826304278958541    0
 620    0.62855617430269517  0.23804762024390036    0
 621    0.77365722464035935  0.29140773778001455    0
 622    0.87342607827087115  0.28214680444643486    0
 623    0.2313643874024979  0.96802428567667476    0
 624    0.375  0    1
 625    0.3125  0    1
 626    0.33599172276725281  0.079414681464135217    0
 627    0.30932774092463883  0.055208042472236443    0
 628    0.33930607193121304  0.035252367363445114    0
 629    0.34375  0.0040552652600619743    0
 630    0.37009850097746216  0.0307337997514825    0
 631    0.41642304530199714  0.038242318076144269    0
 632    0.4375  0    1
 633    0.40625  0.0077061652144087642    0
 634    0.072581171136121198  0.24874597201742943    0
 635    0.14117851850000618  0.17446781915160187    0
 636    0.19668717286131601  0.15536922915787996    0
 637    0.17172089033626936  0.17302177194334362    0
 638    0.21538615725515331  0.11368887471425063    0
 639    0.1800862985844629  0.069658607157609229    0
 640    0.23386011193458778  0.073109870732431387    0
 641    0.18799181959656405  0.099486008626502476    0
 642    0.15161712560111598  0.094325678023784151    0
 643    0.099464913706857561  0.12718596683598571    0
 644    0.12041168992860214  0.10261511824305965    0
 645    0.23971894616603612  0.036066806139134384    0
 646    0.1875  0    1
 647    0.64527274831335957  0.11881676528027074    0
 648    0.70134664194269625  0.16420777056735322    0
 649    0.66925290506177171  0.14652383383236739    0
 650    0.63884230531675679  0.160574051162795    0
 651    0.563049674093828  0.13171660750562841    0
 652    0.53009460035667444  0.14433344442863627    0
 653    0.84696611461442572  0.31131614389798862    0
 654    0.88786712412942115  0.32183229581215805    0
 655    0.91677807559817548  0.28884176586953969    0
 656    1  0.25    1
 657    0.9544708053385853  0.2902602935300494    0
 658    1  0.3125    1
 659    0.88386956400848427  0.35328174466350215    0
 660    0.86641671481008264  0.37586597941518263    0
 661    0.93135189533693019  0.3200641539568897    0
 662    0.28125  0.017556132511278896    0
 663    0.097131704204733382  0.22216231655135815    0
 664    0.11781262565479166  0.1970752556836389    0
 665    0.10827429947688812  0.25641850020965906    0
 666    0.14077105350257452  0.26162433718934663    0
 667    0.13562240868200617  0.13732811889704988    0
 668    0.10910891200165884  0.16071919746194754    0
 669    0.049248974157996846  0.14809220307139265    0
 670    0.050900354649888187  0.072951805047424489    0
 671    0.087663724058063996  0.083078726544627321    0
 672    0.060265961995272697  0.11074598091436233    0
 673    0.031221710535594277  0.12247613659887641    0
 674    0.57483427107676077  0.1644585536693241    0
 675    0.54955779205963007  0.05746063548578792    0
 676    0.50062975938755716  0.066956741626020999    0
 677    0.53059664959552366  0.090561867071396393    0
 678    0.5194827157052555  0.033298088374315894    0
 679    0.625  0    1
 680    0.56811293574446287  0.003566614818271141    0
 681    0.54914413994176325  0.027177038813921486    0
 682    0.58794168951610082  0.038922237792235623    0
 683    0.59710576434550899  0.010544518070461412    0
 684    0.60523653733560034  0.13212077180093837    0
 685    0.58454990816699881  0.089456454319532835    0
 686    0.55782839516289773  0.10246093916981656    0
 687    0.030063275131397761  0.20529972824406004    0
 688    0.064101795386368149  0.21317436957179553    0
 689    0.47313001469032329  0.033734057148988764    0
 690    0.4441904951066305  0.028616772541873267    0
 691    0.46875  0.0026769481005652152    0
 692    0.71875  0.025738837914903345    0
 693    0.62096855735776746  0.091609080512863483    0
 694    0  0.1875    1
 695    0.036123591399169853  0.23970762565036904    0
 696    0.044999296836533753  0.28195392364031435    0
 697    0.012865554540592758  0.27954422996013406    0
 698    0.082369772877315256  0.28493465106860028    0
 699    0.061182332843110331  0.31481531427865012    0
 700    0.093219809277170565  0.31508007701837126    0
 701    0.028844614620680224  0.17307010740362808    0
 702    0.65625  0.017434848345599004    0
 703    0.31056293243861927  0.94631122330883166    0
 704    0.2731375402661706  0.96509699807610294    0
 705    0.32791649254010607  0.91945525282084639    0
 706    0.30080433434718779  0.97354264187668493    0
 707    0.28161827747298707  0.91943954971974606    0
 708    0.25676126117680315  0.89778013945967039    0
 709    0.28180598929398526  0.87585142962561358    0
 710    0.30743733551741415  0.86200772125507419    0
 711    0.18395686226080785  0.64653449067647173    0
 712    0.039766947630270284  0.70943963975881796    0
 713    0.040643519880329437  0.74351753331506254    0
 714    0.073472949329546913  0.72048755772538109    0
 715    0  0.625    1
 716    0.010766231325928107  0.5625    0
 717    0.053801872195148606  0.66222017938388722    0
 718    0.097460867877146265  0.6383552209867156    0
 719    0.0060658686575051288  0.6737272372754175    0
 720    0.063444236057267803  0.69078166889571369    0
 721    0.083072704534750907  0.66390101495987619    0
 722    0.060948089003124734  0.62342583466056323    0
 723    0.039860535757661311  0.58966551770724296    0
 724    0.0083415463064510937  0.59425961837871188    0
 725    0.047570894778425146  0.55224493566946797    0
 726    0.02113393060348176  0.52853676932445603    0
 727    0.100350650460928  0.57917336503077288    0
 728    0.088460029438424431  0.60825423992975858    0
 729    0.13087205968352811  0.6086243560930874    0
 730    0.16578866287399011  0.57294709985498726    0
 731    0.068661743317212032  0.57609525449997456    0
 732    0.16611171050786461  0.61540083896028253    0
 733    0.13304764030385036  0.57582884058364492    0
 734    0.11282572775331885  0.53963350791375075    0
 735    0.094808628530188288  0.51241262702355894    0
 736    0.14760312308210088  0.52862957534919308    0
 737    0.026412923150314942  0.65336737253053612    0
 738    0.033269924760491537  0.6818130322470779    0
 739    0.0015507887528256326  0.71174574562414894    0
 740    0.080174058374684457  0.54506194848437373    0
 741    0.021052831071698558  0.97033582392277939    0
 742    0.022344769261862418  0.40988306731546559    0
 743    0.03212508833671214  0.44064429720558435    0
 744    0.95336356848482018  0.4863056233130848    0
 745    0.92278369654481007  0.47799389045832796    0
 746    1  0.1875    1
 747    1  0.375    1
 748    0.898314121162616  0.19855622464494968    0
 749    0.92468384917298219  0.21903316959032851    0
 750    0.89639581644812039  0.24843035919681042    0
 751    0.82900454581886418  0.22720166618407411    0
 752    0.85949949191919539  0.24797671890591277    0
 753    0.82246197653400832  0.2695740050712167    0
 754    0.86268772891047307  0.21052808268585127    0
 755    0.79149390862683444  0.26581463757184765    0
 756    0.87215103854664233  0.17969418684740091    0
 757    0.90258635917957719  0.11822391344662214    0
 758    0.90713451602479889  0.15874555262383883    0
 759    0.8772077416269064  0.14158847713449499    0
 760    0.82603555000128892  0.088183462096113246    0
 761    0.8646106253205712  0.10244004954864401    0
 762    0.93526921965680643  0.13507164528594889    0
 763    0.96392730823867467  0.2070532321832266    0
 764    0.92958346616653742  0.18460176248873095    0
 765    0.83464043201976579  0.12421658647276815    0
 766    0.78203335351968728  0.16328819076856688    0
 767    0.78796233960282613  0.11631953201870793    0
 768    0.81409385706261184  0.15150372307279628    0
 769    0.76619497747845788  0.20757504507889674    0
 770    0.82316977871160402  0.18903347957055947    0
 771    0.85631063589024681  0.065581955340223333    0
 772    0.741765834727799  0.17040214801720507    0
 773    0.79921293741416288  0.2122258331093767    0
 774    0.84375  0.016373634687815639    0
 775    0.90353759408504475  0.070727043405651835    0
 776    0.94261407889179338  0.091452970721400503    0
 777    0.8125  0    1
 778    0.77917015595702133  0.069166335438253679    0
 779    0.98384745460326872  0.46875    0
 780    0.95567263276920056  0.43438748159627733    0
 781    0.96262914257119869  0.40127869844100428    0
 782    0.75969709669716956  0.13661007647769918    0
 783    0.74947334965291379  0.097125067013888997    0
 784    0.69535756251347836  0.08303927673800264    0
 785    0.67934038677349051  0.11356241917960185    0
 786    0.65700389071847431  0.077262169373393655    0
 787    0.71965692850700713  0.10068007857535627    0
 788    0.6875  0    1
 789    0.875  0    1
 790    1  0.125    1
 791    0.79798527295716093  0.090054362718550524    0
 792    0.7682899511915261  0.033020677401548425    0
 793    0.68186328239214089  0.042424770352969932    0
 794    0.74536193655518934  0.063007234314296265    0
 795    0.99404974417563785  0.40625    0
 796    0.9375  0    1
 797    0.90625  0.016373634687815639    0
 798    1  0.0625    1
 799    0.96726831685904702  0.068971579129244842    0
 800    0.97681576430536965  0.03125    0
 801    0.98917301748529352  0.09375    0
 802    0.125  0    1
 803    0.18225635663237857  0.034665744151152554    0
 804    0.0625  0    1
 805    0.15160119224685684  0.051679577047258243    0
 806    0.15308522663890645  0.018229648868628941    0
 807    0.12391524386664755  0.033693382189798407    0
 808    0.21875  0.010590745205507648    0
 809    0.21061989526869318  0.050449276295336784    0
 810    0.09375  0.01585806130863433    0
 811    0.094053808288720911  0.049771432262056138    0
 812    0.059334427276365675  0.036894759400251151    0
 813    0.013097755797304884  0.0450945053962939    0
 814    0.03125  0.015372780722910472    0
 815    0.012145484698270821  0.085964623769041223    0
 816    0.71403681531554597  0.057239824110127929    0
 817    0.9677203286368089  0.33483575522004455    0
 818    0.99775588726287667  0.34375    0
 819    0.81057330218899248  0.041685216877771901    0
 820    0.93781494039325142  0.041447805462752237    0
 821    0.78125  0.0042665009222667251    0
 822    0.96562314509236347  0.16585062103783271    0
 823    0.99567474135647716  0.15625    0
# Generated by ./triangle -r -a0.001 input/square.1.node input/square.1.ele
