1588  3  0
   1      88    90    89
   2     428   424   429
   3     343    15   345
   4     342   338   340
   5     262   536   601
   6     618   617   560
   7     589   640   587
   8     358   361    22
   9     114   109   198
  10     684   651   685
  11     299   512   297
  12     461   464   445
  13     447   452   433
  14     567   574    58
  15     462   439   460
  16      76   773   755
  17     476   470   472
  18     496   578   493
  19     775   797   820
  20     373   374   375
  21     697   696   504
  22     273   274   293
  23     309   321   317
  24     550   364   544
  25      25   374   718
  26      22   353   358
  27     555   546   553
  28     386   404   405
  29      30   317   334
  30     427    12   407
  31     466   398   399
  32      27   320   336
  33      25   356   374
  34     416   407    12
  35     342   354   387
  36      27   336   339
  37     623   704    26
  38     404   396   354
  39     261   259    49
  40     548   553   546
  41     321   311    24
  42     336   332   331
  43     379   372   377
  44     739   713    21
  45     400   397   399
  46     365    17   351
  47     309   315   320
  48     322   323   325
  49     351   371   349
  50     380   381   378
  51     208   218   220
  52     229   328   326
  53      46   302   210
  54     541    37   220
  55     217   206   201
  56     214   205   204
  57     541   220   226
  58     168   131   179
  59     224   542    35
  60     170   171   265
  61      48   131   168
  62     401   403   402
  63     103    89   101
  64     122   233   234
  65     622   655   654
  66      89   103    44
  67     197   202   194
  68     264   287   285
  69     116    71   127
  70     175   176   271
  71     113   102   112
  72     135   136   165
  73     131   129   130
  74     607   606   601
  75     115    98   123
  76      72   135   117
  77     174   140   141
  78      48   168   172
  79     125   134   117
  80     205   201   203
  81     795   780   781
  82     113   114   133
  83      90    40    89
  84     292   444   446
  85     121   122   234
  86      95    93    88
  87     421    23   397
  88     422   454   457
  89     299    52   512
  90     488   464   467
  91     540    10   276
  92     267   177   268
  93     266   277   539
  94     167    72   134
  95     494   492   495
  96      20   354   396
  97      14   447   433
  98     742    57   483
  99     631   633   690
 100     498   497   500
 101     293   295    59
 102      82   268   281
 103     663    69   664
 104     571    11   559
 105     575   573   574
 106     635   664   668
 107     569   582   581
 108     471   517   458
 109     516   585   525
 110     456   455   442
 111     436   438   454
 112     638   516   636
 113     627   589   587
 114     524   666   515
 115     646   803   806
 116      62   525   514
 117     644   671    66
 118     480   484   478
 119     688   687   701
 120     642   644    66
 121       6   716   715
 122     450   448   451
 123     160   159   181
 124     240   526    97
 125      97    47    99
 126     118   127    71
 127     137   142   147
 128     161   247   246
 129     152   154   151
 130     594   593   249
 131      77   252   253
 132     563   561   560
 133     748   756   758
 134     254   593    80
 135     247   250   245
 136     752   754   750
 137     595   530   817
 138     531   257   269
 139      77   253   538
 140     160   153    74
 141     245   254   246
 142     614   605   606
 143     650   647   649
 144     272   281   268
 145     256   531   532
 146     792   819   778
 147     757   759   761
 148     818   817   658
 149     763   596   598
 150     693   684   685
 151      87   771   774
 152     822   762    84
 153      83   702   793
 154     776    84   762
 155      99    96    97
 156      88    92    90
 157     101    89    40
 158      96    89    44
 159     304    32   303
 160      92   191   111
 161     302   190   301
 162     193   110   190
 163      93    92    88
 164     112   111   110
 165      96    95    88
 166     216   301   303
 167      47    32    94
 168      93    95    32
 169      88    89    96
 170      32    95    94
 171      96    44    97
 172      94    95    96
 173     107   105   100
 174      97    44   107
 175     102   123   101
 176     106   103    98
 177      47    94    99
 178      96    99    94
 179     232   239   118
 180     184    38   119
 181     102   101    40
 182     101    98   103
 183      40   112   102
 184     102    43   115
 185     116   104   106
 186     189   100   105
 187     104   116   127
 188     127   239   104
 189      44   103   105
 190     106   189   103
 191     116   106    98
 192     106   104   189
 193     105   107    44
 194     527   100   122
 195     239   232    50
 196      38   158   119
 197      40    90   111
 198     193   196   195
 199      91   191    92
 200     190   110   191
 201      92   111    90
 202     110   195   112
 203     112   109   113
 204      40   111   112
 205     114   113   109
 206     102   113    43
 207     109   196   198
 208     114    42   130
 209     124   115    43
 210     125   117   116
 211     115   125    98
 212     134   124   167
 213      72   149   180
 214      71   116   117
 215     166   118   108
 216     189   233   100
 217     236   528   121
 218      47    97   526
 219     166   108    38
 220     183   108   118
 221     232   118   166
 222     528   237   527
 223     237   236     3
 224     158   183   136
 225     101   123    98
 226     102   115   123
 227     132    43   133
 228     137   167   132
 229      98   125   116
 230     134   115   124
 231     157   119   158
 232     165    71   117
 233      71   183   118
 234     189   104   239
 235      97   107   240
 236      74   235   242
 237     133   130   132
 238     141   139    48
 239     131   130    42
 240     130   129   132
 241     131    42   179
 242     131    48   139
 243     132   129   144
 244     124    43   132
 245     113   133    43
 246     114   130   133
 247     117   134    72
 248     115   134   125
 249     167   149    72
 250     126   128   135
 251     156   155   184
 252     136   128   158
 253     139   129   131
 254     142   145   147
 255     199   179    42
 256     138   199   212
 257      48   174   141
 258     139   142   144
 259     146    54   244
 260     141   142   139
 261      48   172   174
 262     142   141   140
 263     145   142   140
 264     142   137   144
 265     145   146   143
 266     235   150   143
 267     132   144   137
 268     139   144   129
 269     146   145   140
 270     145   143   147
 271     175   140   174
 272     241   242   244
 273     235   148   150
 274     137   147   149
 275     148   153   152
 276     180   151   126
 277     147   150   149
 278     151   180   150
 279     143   150   147
 280     150   148   151
 281     152   151   148
 282     180   126   135
 283     148   235   153
 284     154   152    73
 285     160    74   163
 286     185   182   162
 287     126   157   128
 288     151   154   126
 289     164    73   152
 290     156   186   155
 291      38   108   158
 292     158   108   183
 293     119   157   184
 294     186   156    73
 295     184   157   156
 296     745    80   780
 297     181   159   187
 298     161   163   243
 299     162   182   187
 300     247   245   246
 301     163   529   160
 302     181   182   164
 303     182    73   164
 304      74   242   243
 305     161   246   529
 306     152   153   164
 307     160   164   153
 308     135   165   117
 309     183   165   136
 310     238   232   166
 311     120   234   232
 312     132   167   124
 313     149   167   137
 314     138   169   168
 315     172   169   171
 316     290   169   138
 317     171   169    41
 318     288   289   286
 319     173   172   170
 320     288   265    41
 321     171   170   172
 322     172   168   169
 323     170   539   173
 324     174   176   175
 325     172   173   174
 326     176   173    45
 327     146   175    54
 328     140   175   146
 329     174   173   176
 330     178   176    45
 331     178   267   176
 332     266   274   277
 333     177   273   272
 334     178    45   277
 335     267   178   177
 336     199    42   198
 337     168   179   138
 338      72   180   135
 339     150   180   149
 340     162   155   185
 341     186   182   185
 342     181   187   182
 343     160   181   164
 344     165   183    71
 345     157   126   154
 346     154    73   156
 347     135   128   136
 348     186   185   155
 349     154   156   157
 350      73   182   186
 351     744   187   159
 352      34   188   187
 353      34   162   188
 354     162   187   188
 355     189    50   233
 356     189   105   103
 357     191    91   190
 358     193   190    46
 359     191   110   111
 360      32   216   303
 361      92   304    91
 362     213   204   210
 363     197   196   193
 364     112   195   109
 365     203   197    46
 366     194   209   212
 367     110   193   195
 368      46   197   193
 369     196   194   198
 370     109   195   196
 371     203   202   197
 372     194   196   197
 373     179   199   138
 374     114   198    42
 375     194   212   198
 376     209   200   212
 377     220   224   226
 378     200   291   290
 379     210   205   203
 380     208    37   206
 381     201   206   202
 382     209    37   200
 383     204   205   210
 384     201   202   203
 385     222   223   230
 386     211   223   222
 387     210   203    46
 388     207   217   211
 389     217   208   206
 390     209   206    37
 391     211   201   205
 392     207   222   313
 393     207   218   208
 394     220   218   221
 395     194   202   209
 396     209   202   206
 397     190   302    46
 398     192   302   301
 399     211   205   214
 400      31   323   313
 401     138   212   200
 402     212   199   198
 403     192   216    39
 404      39   306   213
 405     223   215   307
 406     223   211   214
 407      18   229   305
 408     326   305   229
 409      91   301   190
 410     213   210   302
 411     211   217   201
 412     207   208   217
 413     313   218   207
 414     218    24   221
 415     316   221   308
 416     221   316   219
 417     224   220   219
 418      37   208   220
 419     221    24   311
 420     220   221   219
 421     207   211   222
 422     306   215   204
 423     228    18   305
 424     223   228   230
 425     542   224   219
 426      35   225   226
 427     287   418   285
 428     289   290   291
 429      35   226   224
 430     225   291   541
 431     213   306   204
 432     215   227   307
 433     223   214   215
 434     333   228   305
 435     328   325   326
 436     333   324    31
 437     222   230    31
 438     214   204   215
 439     333   231   324
 440     234   233    50
 441     232   234    50
 442     121   234   120
 443     242   241   243
 444     270   271   267
 445     121     3   236
 446     158   128   157
 447     153   235    74
 448     122   100   233
 449     166   120   238
 450     120   232   238
 451     189   239    50
 452     118   239   127
 453     240   527   526
 454     100   240   107
 455     235   143   242
 456     244   143   146
 457     243   241   261
 458      74   243   163
 459     244    54   260
 460     143   244   242
 461     255    79   253
 462     250   251   245
 463     745   246    80
 464     246   745   529
 465     161   243   261
 466     250   247    49
 467     248   253   252
 468     252   249   251
 469     249   660   594
 470     246   254    80
 471     250    49   256
 472     251   250   248
 473     252   251   248
 474     251   249   254
 475     248   255   253
 476      77   659   660
 477     263   253    79
 478     263   538   253
 479     251   254   245
 480     593   254   249
 481     256   248   250
 482     248   256   255
 483     258   256    49
 484     531   256   258
 485     260   259   241
 486     260   270   259
 487     247   261    49
 488     531   258   257
 489     257   258   259
 490      49   259   258
 491     244   260   241
 492     271   270    54
 493     161   261   247
 494     241   259   261
 495     535    79   533
 496     600   603    10
 497     536    79   534
 498     262   621   538
 499      36   414   485
 500     266   539   265
 501      41   265   171
 502     265   264   266
 503     266   282   274
 504      59   280   273
 505     269   267   268
 506     257   259   270
 507     272   268   177
 508     269   268    82
 509     531   269    82
 510     270   269   257
 511      54   270   260
 512     269   270   267
 513     175   271    54
 514     176   267   271
 515     272   273   280
 516     280   540   272
 517     177   178   277
 518     273   277   274
 519     266   283   282
 520     282   284   274
 521     279   294   295
 522     300   275   298
 523     276   535   533
 524      79   255   532
 525     277   273   177
 526     277    45   539
 527     283   285   278
 528     487   279   284
 529     279   487   294
 530     273   293    59
 531     295   280    59
 532     540   280   275
 533     540   281   272
 534     281   276   533
 535     283   266   264
 536     284   282   278
 537     285   283   264
 538     278   282   283
 539     278   486   487
 540     284   279   293
 541     264   288   287
 542      36   485   509
 543      35   413   225
 544     412   413   411
 545     264   265   288
 546     286   412   418
 547     289   288    41
 548     286   287   288
 549     289    41   290
 550     286   289   225
 551     169   290    41
 552     138   200   290
 553     541   200    37
 554     289   291   225
 555     294   444   292
 556     292   296   295
 557     284   293   274
 558     295   293   279
 559       5   465   444
 560     295   294   292
 561     296   292    52
 562     280   295   275
 563      52   488   511
 564     275   295   298
 565     608   602    13
 566     300   298   299
 567     295   296   298
 568     299   298   296
 569      52   299   296
 570     300   299   297
 571     602   297   615
 572     275   300    10
 573     213   192    39
 574     216   192   301
 575     304    92    93
 576     213   302   192
 577     301    91   304
 578      32   304    93
 579     301   304   303
 580     306    39   227
 581     223   307   228
 582     215   306   227
 583     227    18   307
 584     228   307    18
 585     320   311   309
 586      27   415   316
 587     218   313   314
 588     315   309   318
 589     339   403   415
 590     402    20   400
 591     221   311   308
 592     321    24   314
 593     335   322    19
 594     317    30   318
 595      31   313   222
 596     314   313   312
 597     314   312   321
 598     218   314    24
 599     318   332   315
 600     315   336   320
 601     316   308   320
 602     542   316   310
 603     317   321   322
 604     335   330   334
 605     317   318   309
 606     332   318    30
 607     319   369   350
 608     349   344   345
 609     316   320    27
 610     320   308   311
 611     321   309   311
 612     322   321   312
 613     312   323   322
 614     324   325   323
 615     313   323   312
 616     324   323    31
 617     333    31   230
 618     324   231   325
 619     326   325   231
 620     322   325    19
 621     305   326   231
 622     229   329   328
 623     330   335   705
 624     325   328    19
 625     328   329   703
 626     229   327   329
 627     329   327   706
 628      19   328   703
 629     370    16   350
 630     319   337   331
 631      20   402   403
 632     369   332    30
 633     331   332   319
 634     228   333   230
 635     231   333   305
 636     335   334   317
 637     330   709   710
 638     322   335   317
 639      19   703   705
 640     332   336   315
 641     339   336   331
 642     363   350    16
 643     340   337    15
 644     340   339   331
 645     340    15   343
 646     331   337   340
 647     403   339   338
 648     343   342   340
 649     338   339   340
 650     345   355   343
 651     711   359   348
 652     341   353   342
 653     353   354   342
 654     346   347   350
 655     341   342   343
 656     352   344   371
 657     355   348   341
 658      15   337   347
 659     345   344   348
 660     345    15   347
 661     363   346   350
 662     319   347   337
 663     347   346   349
 664     356   348   344
 665     348   356   711
 666     347   349   345
 667     351   349   346
 668     347   319   350
 669     319   332   369
 670     365   346   363
 671     351    17   352
 672     352   377   376
 673     356    25   711
 674     353   359   358
 675     354   353    22
 676     354    22   404
 677     354    20   387
 678     343   355   341
 679     345   348   355
 680     352   375   344
 681     376   373   375
 682     729   718   728
 683     361   358   362
 684     359   353   341
 685     358   357   362
 686     348   359   341
 687     357   358   359
 688     718   729    25
 689      14   433   430
 690     360   388   361
 691     405   406   419
 692     357   732   730
 693     361   362   360
 694     366   363    16
 695     365   351   346
 696     364   366   544
 697     367   368   389
 698     367   363   366
 699     363   367   365
 700      16   708   544
 701     366   364   367
 702      29   368   364
 703     367   364   368
 704     556   741   391
 705     378   385   383
 706     710    30   334
 707     708    16   709
 708     350   369   370
 709     369   710   709
 710     349   371   344
 711     351   352   371
 712     379   377   380
 713     712   720   714
 714     372   393   713
 715     374   373   721
 716     375   374   356
 717     373   720   721
 718     344   375   356
 719     375   352   376
 720     377   352    17
 721     376   372   714
 722     377    17   380
 723     372   376   377
 724      17   381   380
 725     384   378   381
 726     383   385    28
 727     379   378   383
 728     381    17   365
 729     379   380   378
 730     389   365   367
 731     381   389   384
 732     408    28   390
 733     393   372   379
 734     383   408   409
 735      28   385   392
 736     545   368    29
 737     383    28   408
 738     378   384   385
 739     385   384   392
 740     405    22   361
 741     416   420   421
 742     403   387    20
 743     342   387   338
 744     428   431   424
 745     406   388     8
 746     384   389   368
 747     365   389   381
 748     554   390   394
 749     392   556   391
 750     384   545   392
 751     552   546    29
 752     409   379   383
 753     395   393   409
 754     392   555   556
 755     392   391   394
 756     382    21   395
 757      21   393   395
 758     386   397   396
 759      20   396   400
 760     421   397   386
 761     399   397    23
 762     466   399    23
 763     286   413   412
 764      23   468   466
 765     399   398   400
 766     400   396   397
 767      36   412   414
 768     414   402   400
 769     410   411   310
 770     414   400   398
 771     403   401   410
 772     403   410   415
 773     387   403   338
 774     405   404    22
 775     396   404   386
 776     406   361   388
 777     407   419   406
 778     406     8   407
 779     361   406   405
 780     423   407     8
 781     426   427   423
 782     390   382   408
 783     409   408   382
 784     395   409   382
 785     379   409   393
 786     411   410   401
 787     415   410   310
 788     411   401   412
 789     411    35   542
 790     414   412   401
 791     418   412    36
 792     225   413   286
 793     411   413    35
 794     402   414   401
 795     414   398   485
 796     316   415   310
 797     339   415    27
 798     416    12   420
 799     386   405   416
 800     417   423   428
 801     435   436   429
 802     285   418    36
 803     286   418   287
 804     407   416   419
 805     405   419   416
 806      12   441   420
 807     462   420   441
 808     416   421   386
 809      23   421   420
 810     457   454   453
 811     442   439   441
 812     425   431     8
 813     426   423   417
 814       8   388   425
 815     430   433   437
 816     388   360   425
 817     425   434   430
 818     426   417   454
 819     427   426   422
 820      12   427   422
 821     407   423   427
 822     423     8   431
 823     424   437   429
 824     429    56   435
 825     417   428   429
 826     424   425   430
 827     434   425   360
 828     424   431   425
 829     423   431   428
 830     477   479   478
 831     477   523   479
 832     440   447   450
 833      56   429   437
 834     357   730   362
 835     430   434   736
 836     435    56   478
 837     436   435   432
 838     438   436   432
 839     429   436   417
 840     430   437   424
 841      56   437   433
 842     475   474    64
 843     469   454   438
 844     442    12   422
 845     439   455   460
 846     483    57   503
 847      56   433   452
 848     442   441    12
 849     462   441   439
 850     422   426   454
 851     460   455    51
 852     292   446    52
 853     443   465   462
 854       5   444   294
 855     443   445   446
 856     461   443   460
 857      51   520   464
 858     443   446   444
 859     446   445   488
 860     450   447   735
 861     452   447   506
 862     360   730   434
 863     723    70   724
 864     742   483   743
 865     449   482   480
 866     735   447    14
 867     725   726   448
 868     483   506   743
 869     440   450   451
 870     506   447   440
 871     452   449   480
 872     459   471   458
 873     520   458   519
 874     436   454   417
 875     469   438    64
 876     439   442   455
 877     422   457   442
 878     459   456   453
 879     455   456   521
 880     453   456   457
 881     442   457   456
 882     453   469   471
 883     519    53   500
 884     471   459   453
 885     520   459   458
 886     461   460    51
 887     460   443   462
 888     459   520   521
 889     443   461   445
 890     443   444   465
 891     420   462   468
 892      53   495   498
 893     511   488   467
 894      51   464   461
 895     464   463   467
 896     466   486   485
 897     420   468    23
 898     465     5   486
 899     398   466   485
 900     463   510   467
 901     511   557   490
 902     462   465   468
 903     466   468   465
 904     471   469   472
 905     453   454   469
 906     474   476   472
 907     492   470   476
 908     472   469    64
 909     470   494   517
 910     472    64   474
 911     470   471   472
 912     475   438   432
 913     473   513   476
 914     475    64   438
 915     474   473   476
 916     479   475   432
 917     474   475   523
 918     514   491   513
 919     476    63   492
 920     432   435   478
 921     515   514   473
 922      56   480   478
 923     484   480   482
 924     478   479   432
 925     523   477   515
 926     452   480    56
 927     482   483   503
 928     699   503   505
 929     484   477   478
 930     482   449   483
 931     482   481   484
 932     449   506   483
 933     743   451   508
 934     481   699   700
 935     524   484    68
 936     466   465   486
 937     285   509   278
 938     487   486     5
 939     509   486   278
 940     487     5   294
 941     278   487   284
 942     446   488    52
 943     464   488   445
 944     498   500    53
 945     566   558   563
 946     467   510   557
 947     615   512   490
 948     491   514   525
 949     513   585   476
 950     496   492    63
 951     517    53   458
 952     579   578    63
 953     494   495    53
 954     470   492   494
 955     492   496   495
 956      61   499   493
 957     497   499   502
 958     579    63   585
 959     495   496   493
 960     498   495   499
 961     559   558   489
 962     495   493   499
 963     500   497   518
 964     499    61   502
 965     497   498   499
 966     510   500   489
 967     519   500   463
 968     570   567    58
 969     652    58   677
 970     568   502    61
 971     502   501   571
 972     505   503    57
 973     482   503   481
 974     504   505   507
 975     697   695   696
 976     507   505    57
 977     504   696   699
 978     452   506   449
 979     508   451     6
 980       6   522   508
 981     504   507     9
 982     507   742   522
 983     507    57   742
 984      36   509   285
 985     486   509   485
 986     500   510   463
 987     557   510   489
 988     557   511   467
 989     572   615   490
 990      52   511   512
 991     490   512   511
 992     514   513   473
 993     513   491   585
 994     473   523   515
 995     666   591   515
 996     477   524   515
 997     665   634   663
 998     516   525   636
 999     579   586   588
1000     470   517   471
1001      53   517   494
1002     497   571   559
1003     489   500   518
1004     520   519   463
1005      53   519   458
1006     464   520   463
1007     521   520    51
1008     455   521    51
1009     459   521   456
1010     506   440   743
1011     508   522   743
1012     474   523   473
1013     479   523   475
1014     484   524   477
1015      68   665   666
1016     636   525    62
1017     585   516   579
1018     240   100   527
1019     237    47   526
1020     528   527   122
1021     237   526   527
1022     121   528   122
1023     237   528   236
1024     160   529   159
1025     161   529   163
1026      77   653   654
1027     817   657   658
1028     533    82   281
1029     531   533   532
1030     256   532   255
1031      82   533   531
1032      10   603   535
1033      79   532   533
1034     300   600    10
1035     263   536   262
1036      10   535   276
1037      79   535   534
1038      79   536   263
1039     534   603   601
1040     621   537   538
1041     754   748   750
1042     262   538   263
1043      77   538   537
1044     173   539    45
1045     265   539   170
1046      10   540   275
1047     281   540   276
1048     225   541   226
1049     200   541   291
1050     316   542   219
1051     411   542   310
1052     709   707   708
1053     623   549   550
1054      16   544   366
1055     543   623   550
1056     368   545   384
1057     741   554   391
1058     364   550   552
1059     556   555   553
1060     555    29   546
1061     552   551   546
1062     554   394   391
1063     553   548   547
1064     546   551   548
1065     543   550   544
1066     552   550   549
1067     549    26   551
1068      26   548   551
1069     551   552   549
1070     364   552    29
1071     545   555   392
1072     741   547     4
1073     390    28   394
1074     555   545    29
1075     547   556   553
1076      28   392   394
1077     547   741   556
1078     489   518   559
1079     557   489   558
1080     561   558    11
1081     563   558   561
1082     497   559   518
1083      11   558   559
1084     561    11   564
1085     620   617   619
1086     565   564    11
1087     616   560   610
1088     618   562   652
1089     561   564   560
1090     572   563   616
1091     566   490   557
1092      11   571   565
1093     564   562   618
1094     565   501   567
1095     562   564   565
1096     558   566   557
1097     572   566   563
1098     568   501   502
1099     569   575   568
1100     568    61   582
1101     501   568   567
1102     578   580   493
1103     576   575   569
1104     562   565   570
1105     567   570   565
1106     502   571   497
1107     571   501   565
1108      13   602   615
1109     566   572   490
1110     633   631   630
1111     689   678   676
1112     575   574   567
1113     676   675   677
1114     568   575   567
1115     584   576   569
1116       7   631   576
1117     573   575   576
1118     577   583   581
1119     569   568   582
1120      63   578   496
1121     580   578   577
1122     586   579   516
1123     577   578   579
1124     580   577   581
1125     493   580    61
1126     577   588   583
1127     576   584     7
1128      61   580   582
1129     581   582   580
1130     583   588   589
1131     626   584   581
1132     569   581   584
1133     626   581   583
1134     585    63   476
1135     525   585   491
1136     638   586   516
1137     589   588    65
1138     638    65   586
1139     627   628   626
1140     579   588   577
1141      65   588   586
1142     640   589    65
1143     645   662   587
1144     663   664   590
1145     514   591    62
1146     515   591   514
1147     635   591   590
1148     591   635   637
1149     638   592   641
1150     595   593   594
1151      75   763   598
1152     249   252   660
1153     595   594   530
1154     744   745   780
1155      75   749   763
1156      78   781   595
1157     822   763   764
1158     781    78   795
1159     598   658   657
1160     746   763   822
1161     762   822   764
1162     608    13   610
1163     601   536   534
1164     297   600   300
1165     603   600   599
1166     607   599   608
1167     621   605    76
1168     599   600   602
1169     297   602   600
1170     601   603   599
1171     603   534   535
1172     612   613   609
1173     614   606   612
1174     262   601   605
1175     606   605   601
1176     607   601   599
1177     606   604   612
1178     599   602   608
1179     606   607   611
1180     572   616    13
1181     611   608   620
1182     604   613   612
1183     765   767   791
1184     617   610   560
1185     608   610   620
1186     606   611   604
1187     607   608   611
1188     604   619   613
1189     614   612   609
1190     674    81   617
1191      86   782   772
1192     609   772   769
1193     605   614    76
1194     512   615   297
1195      13   615   572
1196     560   616   563
1197     610    13   616
1198     560   564   618
1199     619   617    81
1200     562   570   652
1201     617   618   674
1202     619    81   650
1203     620   619   604
1204     620   604   611
1205     617   620   610
1206     605   621   262
1207     755   751   753
1208      77   537   653
1209     755   621    76
1210     543   707   704
1211      26   549   623
1212     584   626     7
1213     625   624   629
1214     628     7   626
1215     627   583   589
1216     627   625   628
1217     629   630   628
1218     627   587   662
1219     629   628   625
1220     627   626   583
1221     630   629   624
1222     624   632   633
1223       7   628   630
1224     678   689    55
1225     573   576   631
1226     631     7   630
1227     633   630   624
1228     690   633   632
1229     699   698   700
1230       9   687   695
1231     644   642   667
1232     637   592   636
1233     637   636    62
1234     636   592   638
1235     591   637    62
1236     637   635   667
1237     639   641   642
1238      65   638   640
1239     806   803   805
1240     645   587   640
1241     641   640   638
1242     645    60   662
1243     642   641   592
1244     640   641   639
1245     592   637   667
1246     642    66   805
1247     669   643   668
1248     673   672   669
1249     667   642   592
1250     669   672   643
1251     639   805   803
1252     639   803   809
1253     807   806   805
1254     640   809   645
1255     816   692   794
1256     785   648   649
1257     609   613   648
1258     649   648   613
1259     650   649   613
1260     649   647   785
1261     619   650   613
1262     650    81   684
1263      58   676   677
1264     650   684   647
1265      58   652   570
1266     652   651   674
1267     753   752   622
1268     654   653   622
1269     622   750   655
1270     530   594   659
1271     598   657    75
1272     654   655   661
1273     744   779    34
1274     818    78   817
1275     661   817   530
1276     661   655   657
1277     763   749   764
1278     598   656   658
1279      77   654   659
1280     530   659   654
1281      77   660   252
1282     594   660   659
1283     654   661   530
1284      75   657   655
1285      60   625   662
1286     627   662   625
1287     665   663   590
1288       9   694   687
1289     668   664    69
1290     590   664   635
1291     666   665   590
1292     665    68   698
1293     666   590   591
1294      68   666   524
1295     668   667   635
1296     644   667   643
1297     669   668    69
1298     667   668   643
1299      69   688   701
1300     673   670   672
1301     814   813     1
1302     810   802   807
1303     643   671   644
1304     806   807   802
1305     670   671   672
1306     643   672   671
1307     701   673   669
1308     673    67   815
1309     652   674   618
1310     684   674   651
1311      58   574   676
1312     678   681   675
1313     574   573   676
1314     676   573   689
1315     686   675   685
1316     677   686   652
1317     682   683    83
1318     675   676   678
1319     681   682   675
1320      55   680   681
1321      55   679   680
1322      55   681   678
1323     682   681   680
1324     683   682   680
1325     693   685    83
1326     680   679   683
1327      83   683   679
1328     674   684    81
1329     686   685   651
1330     675   682   685
1331      83   685   682
1332     652   686   651
1333     675   686   677
1334      69   663   688
1335     701    67   673
1336     663   634   688
1337     695   688   634
1338     690   573   631
1339     691   689   690
1340     691   690   632
1341     573   690   689
1342     632    55   691
1343      55   689   691
1344      33   792   692
1345     793   788   692
1346     786   693    83
1347     684   693   647
1348     688   695   687
1349     701   687   694
1350     695   634   696
1351      67   701   694
1352     698   696   634
1353     699   505   504
1354     504     9   697
1355     695   697     9
1356     665   698   634
1357      68   484   700
1358     699   481   503
1359     696   698   699
1360      68   700   698
1361     481   700   484
1362     701   669    69
1363     787   816   794
1364     788   793   702
1365     706    26   704
1366     707   703   704
1367     543   704   623
1368     706   704   703
1369      19   705   335
1370     707   705   703
1371     329   706   703
1372      26   706   327
1373     543   544   708
1374     705   707   330
1375      16   370   709
1376     543   708   707
1377     369   709   370
1378     707   709   330
1379      30   710   369
1380     330   710   334
1381     732    25   729
1382     359   711   357
1383     715    70   737
1384     719   737   738
1385      21   713   393
1386     714   713   712
1387     376   714   373
1388     713   714   372
1389     722   737    70
1390     451   448   726
1391     731   723   725
1392     722   717   737
1393     720   717   721
1394     721   722   718
1395     722   728   718
1396     739   712   713
1397     719   738   739
1398     714   720   373
1399     738   720   712
1400     722   721   717
1401     374   721   718
1402      70   715   724
1403     722    70   723
1404     716   725   723
1405     728   722   731
1406     715   716   724
1407     716   723   724
1408     726   725   716
1409     734   740   735
1410     716     6   726
1411     451   726     6
1412     740   734   727
1413     736   733   734
1414     731   722   723
1415     728   727   729
1416     733   730   729
1417     711   732   357
1418     362   730   360
1419     733   729   727
1420     740   725   448
1421     728   731   727
1422      25   732   711
1423     730   732   729
1424     727   734   733
1425     730   733   736
1426     727   731   740
1427     736   734    14
1428     450   735   448
1429      14   734   735
1430     430   736    14
1431     730   736   434
1432     738   737   717
1433     715   737   719
1434     720   738   717
1435     739   738   712
1436      21   715   739
1437     715   719   739
1438     725   740   731
1439     735   740   448
1440     554   741     4
1441     743   440   451
1442     522   742   743
1443     187   744    34
1444     529   745   159
1445     595   781   593
1446     159   745   744
1447     749    75   750
1448     780    80   593
1449      85   759   756
1450      75   655   750
1451     749   748   764
1452     750   622   752
1453     748   749   750
1454     537   753   653
1455      76   614   769
1456     753   622   653
1457     752   751   754
1458     755   537   621
1459     751   752   753
1460     770   754   751
1461     756   754   770
1462      76   769   773
1463     537   755   753
1464     759   758   756
1465     748   754   756
1466     765   759    85
1467     757   761   775
1468     762   758   757
1469     758   762   764
1470     761   759   765
1471     757   758   759
1472     765   760   761
1473      33   821   792
1474     760   771   761
1475     761   771   775
1476     776   757   775
1477     596   763   746
1478     746   656   596
1479     598   596   656
1480     823   822    84
1481     748   758   764
1482     768   765    85
1483     768   767   765
1484     768   770   766
1485     648   772   609
1486     766   782   767
1487     791   783   778
1488     770   768    85
1489     767   768   766
1490     609   769   614
1491     766   770   773
1492     770    85   756
1493     770   751   773
1494     778   819   791
1495     771    87   775
1496      86   772   648
1497     769   772   766
1498     755   773   751
1499     766   773   769
1500     777   789   774
1501     792   821   819
1502     760   819   771
1503     776   762   757
1504      87   797   775
1505     798   799   800
1506     760   765   791
1507     819   774   771
1508     767   782   783
1509     777   774   819
1510     597    34   779
1511     597   779   780
1512     780   779   744
1513      78   747   795
1514     593   781   780
1515     772   782   766
1516     782    86   783
1517     787   783    86
1518     784   816   787
1519      86   648   785
1520     786   785   647
1521     786   647   693
1522     785   784   787
1523      83   793   786
1524     785   786   784
1525     785   787    86
1526     786   793   784
1527     679   702    83
1528     679   788   702
1529     819   760   791
1530     798   800     2
1531     776   799   801
1532     783   791   767
1533     794   792   778
1534     789    87   774
1535     783   794   778
1536     692   792   794
1537     788    33   692
1538     787   794   783
1539     692   816   793
1540     747   597   795
1541     780   795   597
1542     820   800   799
1543     796   800   820
1544     796   820   797
1545      87   789   797
1546      84   776   801
1547     775   820   776
1548     799   798   801
1549     796     2   800
1550     789   796   797
1551     798   790   801
1552      84   801   790
1553     812   810   811
1554      60   645   808
1555     803   646   808
1556     812   813   814
1557     811   810   807
1558     642   805   639
1559     811    66   671
1560     646   806   802
1561      66   807   805
1562     812   811   670
1563     808   645   809
1564     646    60   808
1565     639   809   640
1566     808   809   803
1567     804   802   810
1568      66   811   807
1569     670   811   671
1570     812   670   813
1571     810   812   804
1572     670   815   813
1573       1   813   815
1574       1   804   814
1575     812   814   804
1576     673   815   670
1577       1   815    67
1578     793   816   784
1579     595   817    78
1580     657   817   661
1581     658   747   818
1582      78   818   747
1583     820   799   776
1584      33   777   821
1585     819   821   777
1586     823    84   790
1587     790   746   823
1588     746   822   823
# Generated by ./triangle -r -a0.001 input/square.1.node input/square.1.ele
