0  2  0  1
18  1
   1       2    33       2
   2       3    38       2
   3       4    26       2
   4       1    67       2
   5       6    21       2
   6      18    39       2
   7      26    18       2
   8      21     4       2
   9      32    47       2
  10      39    32       2
  11      47     3       2
  12      34     2       2
  13       9     6       2
  14      55    60       2
  15      60     1       2
  16      67     9       2
  17      38    34       2
  18      33    55       2
0
# Generated by ./triangle -p -e -a0.01 input/square.poly
